<svg width="24" height="22" viewBox="0 0 24 22" fill="none" xmlns="http://www.w3.org/2000/svg">
<path fill-rule="evenodd" clip-rule="evenodd" d="M9.25229 0.371231H14.7472C16.0109 0.380056 17.0153 1.04318 17.5888 2.17396L17.7146 2.42459L18.6057 4.29132L18.8622 4.29747C21.7129 4.44662 23.9581 6.80513 23.9581 9.6707V16.596C23.9581 19.5671 21.5489 21.9767 18.5774 21.9767H5.42327C2.45085 21.9767 0.0414333 19.5673 0.0414333 16.596V9.6707C0.0414333 6.69864 2.4505 4.29004 5.34886 4.29241L5.39433 4.29015L6.04974 2.90991L6.40993 2.17553C6.9864 1.04241 7.98914 0.380052 9.25229 0.371231ZM14.7391 2.70454L9.26858 2.70451C8.90597 2.70704 8.68229 2.85479 8.4898 3.23316L8.37335 3.46628L7.49282 5.3129C7.15843 6.01953 6.48698 6.50553 5.64068 6.61185L5.23041 6.62936C3.63613 6.72877 2.37477 8.05215 2.37477 9.6707V16.596C2.37477 18.2786 3.73952 19.6434 5.42327 19.6434H18.5774C20.2601 19.6434 21.6248 18.2785 21.6248 16.596V9.6707C21.6248 8.04798 20.353 6.71199 18.7708 6.62881L18.389 6.61564C17.5787 6.54895 16.8594 6.05563 16.5074 5.31189L15.8513 3.92834L15.5093 3.23223C15.3179 2.85497 15.0939 2.70704 14.7391 2.70454ZM7.12501 12.7282C7.10335 10.0535 9.31011 7.83668 12.0053 7.83973L12.2484 7.846C14.8251 7.97622 16.8793 10.1181 16.8748 12.7289C16.8702 15.4122 14.6844 17.5993 12.0023 17.6024C9.31539 17.6039 7.12343 15.4077 7.12501 12.7282ZM14.5415 12.7249C14.5439 11.321 13.4022 10.1747 12.0026 10.1731L11.8216 10.1794C10.505 10.2729 9.4476 11.3932 9.4583 12.7194C9.4575 14.1203 10.6048 15.2699 12.0003 15.2691C13.3951 15.2675 14.5391 14.1227 14.5415 12.7249ZM17.3709 9.89826C17.4956 9.94844 17.6069 9.97785 17.7196 9.98942L17.8333 9.99515L17.9491 9.98943C18.217 9.96284 18.4682 9.84443 18.6595 9.65188C18.8808 9.41681 19 9.13441 19 8.82905C19 8.67007 18.9675 8.5125 18.9031 8.36759L18.8765 8.29942C18.8317 8.20328 18.7509 8.08927 18.6551 7.9948C18.3351 7.675 17.8232 7.5731 17.3928 7.74364C17.2477 7.80757 17.1415 7.8802 17.0379 7.97047C16.9016 8.10316 16.8262 8.22515 16.7626 8.36976C16.6992 8.5125 16.6667 8.67007 16.6667 8.82905C16.6667 9.12835 16.7874 9.41847 16.996 9.64032C17.1121 9.75826 17.2322 9.83664 17.3709 9.89826Z" fill="#447BFB"/>
</svg>
