<svg width="12" height="12" viewBox="0 0 12 12" fill="none" xmlns="http://www.w3.org/2000/svg">
<path fill-rule="evenodd" clip-rule="evenodd" d="M10.8492 0.955851C10.4587 0.565327 9.82555 0.565327 9.43503 0.955851L5.89949 4.49138L2.36396 0.955851C1.97344 0.565327 1.34027 0.565327 0.949747 0.955851C0.559223 1.34638 0.559223 1.97954 0.949747 2.37006L4.48528 5.9056L0.949747 9.44113C0.559223 9.83166 0.559223 10.4648 0.949747 10.8553C1.34027 11.2459 1.97344 11.2459 2.36396 10.8553L5.89949 7.31981L9.43503 10.8553C9.82555 11.2459 10.4587 11.2459 10.8492 10.8553C11.2398 10.4648 11.2398 9.83166 10.8492 9.44113L7.31371 5.9056L10.8492 2.37006C11.2398 1.97954 11.2398 1.34638 10.8492 0.955851Z" fill="#447BFB"/>
</svg>
