<svg width="22" height="21" viewBox="0 0 22 21" fill="none" xmlns="http://www.w3.org/2000/svg">
<path fill-rule="evenodd" clip-rule="evenodd" d="M13.2266 1.18035C11.8247 0.161769 9.92627 0.161768 8.52432 1.18034L2.28945 5.71024C0.887503 6.72882 0.300869 8.53429 0.836366 10.1824L3.21787 17.5119C3.75337 19.16 5.28919 20.2758 7.0221 20.2758H14.7288C16.4617 20.2758 17.9975 19.16 18.533 17.5119L20.9146 10.1824C21.4501 8.53429 20.8634 6.72882 19.4615 5.71024L13.2266 1.18035ZM5.93321 9.53773C5.54269 9.92826 5.54269 10.5614 5.93321 10.9519L8.76164 13.7804C9.15217 14.1709 9.78533 14.1709 10.1759 13.7804L15.8327 8.12352C16.2232 7.733 16.2232 7.09983 15.8327 6.70931C15.4422 6.31878 14.809 6.31878 14.4185 6.70931L9.46875 11.6591L7.34743 9.53773C6.9569 9.14721 6.32374 9.14721 5.93321 9.53773ZM7.00002 15.5C6.44774 15.5 6.00003 15.9477 6.00002 16.5C6.00003 17.0523 6.44774 17.5 7.00003 17.5H15C15.5523 17.5 16 17.0523 16 16.5C16 15.9477 15.5523 15.5 15 15.5H7.00002Z" fill="#959FBA"/>
</svg>
