<svg width="375" height="67" viewBox="0 0 375 67" fill="none" xmlns="http://www.w3.org/2000/svg">
<path d="M610.52 -695.66C632.463 -653.239 654.802 -606.954 671.784 -562.601C689.04 -517.488 726.23 -479.344 760.469 -447.758C798.268 -412.91 839.354 -381.894 874.931 -344.606C910.508 -307.318 940.882 -262.237 950.773 -210.787C961.972 -152.558 945.721 -91.5728 917.873 -39.7116C909.209 -22.6434 898.06 -7.07306 884.822 6.44714C871.066 19.8164 854.388 29.5424 837.619 38.3179C792.698 61.6982 745.464 79.8512 695.583 86.8526C643.663 94.1392 590.86 90.9078 539.03 84.2231C469.336 75.2575 400.281 60.0825 330.161 55.7105C279.61 52.5424 228.877 55.1403 178.387 59.1003C124.366 63.3138 69.2806 69.0164 16.5993 55.9323C-52.5469 38.7931 -112.472 -10.8505 -149.084 -74.4653C-181.009 -129.78 -216.891 -234.959 -188.952 -296.99C-159.188 -363.044 -78.5071 -407.872 -25.6736 -451.18C-4.36977 -468.699 16.9341 -487.993 29.1077 -513.337C42.6813 -541.597 43.6856 -574.323 49.3159 -605.211C67.5764 -705.797 140.618 -793.553 233.838 -826.564C364.704 -873.008 522.779 -842.183 599.898 -714.605C603.642 -708.522 607.172 -702.122 610.52 -695.66Z" fill="#89AAFA"/>
</svg>
