<svg width="28" height="23" viewBox="0 0 28 23" fill="none" xmlns="http://www.w3.org/2000/svg">
<path fill-rule="evenodd" clip-rule="evenodd" d="M10.9418 1.24443C10.9414 0.600099 10.4187 0.07809 9.77439 0.0784914L7.81394 0.0797139L7.56987 0.0857953C4.90118 0.216015 2.77845 2.42 2.77845 5.1196V7.40271L2.7863 7.53877C2.85369 8.119 3.34681 8.56938 3.94511 8.56938C4.58945 8.56938 5.11178 8.04705 5.11178 7.40271V5.1196L5.11802 4.93443C5.21312 3.52713 6.38419 2.41468 7.816 2.41305L9.77584 2.41182L9.91189 2.40389C10.4921 2.33614 10.9422 1.84274 10.9418 1.24443ZM20.3291 0.0784914C23.0257 0.0784914 25.2413 2.21473 25.3693 4.88071L25.3751 5.12449V7.40271C25.3751 8.04705 24.8528 8.56938 24.2085 8.56938C23.6101 8.56938 23.117 8.119 23.0496 7.53877L23.0418 7.40271V5.12449C23.0418 3.69689 21.9186 2.5142 20.5139 2.41813L20.3291 2.41182H18.4115C17.7671 2.41182 17.2448 1.88949 17.2448 1.24516C17.2448 0.64685 17.6952 0.153733 18.2754 0.0863405L18.4115 0.0784914H20.3291ZM26.4034 11.1786C27.0478 11.1786 27.5701 11.7009 27.5701 12.3453C27.5701 12.9436 27.1197 13.4367 26.5395 13.5041L26.4034 13.5119H25.3751V17.6314C25.3751 20.3272 23.2385 22.5435 20.5729 22.6715L20.3291 22.6774H18.4115C17.7671 22.6774 17.2448 22.155 17.2448 21.5107C17.2448 20.9124 17.6952 20.4193 18.2754 20.3519L18.4115 20.344H20.3291C21.7563 20.344 22.9394 19.2201 23.0355 17.816L23.0418 17.6314V13.5119H5.11178V17.6363C5.11178 19.0677 6.22319 20.2397 7.63026 20.3364L7.8154 20.3428L9.77584 20.344C10.4202 20.3444 10.9422 20.8671 10.9418 21.5114C10.9414 22.1097 10.4907 22.6026 9.91045 22.6696L9.77439 22.6774L7.81334 22.6761C5.11359 22.6731 2.91145 20.5484 2.78425 17.8803L2.77845 17.6363V13.5119H1.75C1.10567 13.5119 0.583336 12.9896 0.583336 12.3453C0.583336 11.747 1.03372 11.2538 1.61394 11.1864L1.75 11.1786H3.94511H24.2085H26.4034Z" fill="#447BFB"/>
</svg>
