<svg width="25" height="25" viewBox="0 0 25 25" fill="none" xmlns="http://www.w3.org/2000/svg">
<path fill-rule="evenodd" clip-rule="evenodd" d="M0.480209 13.5732C0.480209 10.6386 2.79347 8.24378 5.69586 8.113L5.94604 8.10737H7.03454C7.67888 8.10737 8.20121 8.62971 8.20121 9.27404C8.20121 9.87235 7.75083 10.3655 7.1706 10.4329L7.03454 10.4407H5.94604C4.28274 10.4407 2.92192 11.7375 2.81971 13.3751L2.81354 13.5732L2.81354 19.2607C2.81354 20.923 4.11051 22.2837 5.74797 22.3859L5.94604 22.392H18.931C20.5942 22.392 21.9552 21.0953 22.0574 19.4587L22.0635 19.2607V13.5615C22.0635 11.9047 20.7718 10.5487 19.1411 10.4468L18.9439 10.4407H17.8437C17.1994 10.4407 16.677 9.91837 16.677 9.27404C16.677 8.67573 17.1274 8.18262 17.7077 8.11522L17.8437 8.10737H18.9439C21.8716 8.10737 24.2608 10.4161 24.3913 13.3119L24.3969 13.5615V19.2607C24.3969 22.1944 22.0834 24.589 19.1812 24.7197L18.931 24.7254H5.94604C3.01161 24.7254 0.616625 22.4123 0.485835 19.5108L0.480209 19.2607L0.480209 13.5732ZM11.5979 0.539181C11.8102 0.318762 12.1083 0.181623 12.4384 0.181623C12.7715 0.181623 13.072 0.321201 13.2846 0.545055L16.667 3.94138C17.1216 4.39792 17.1201 5.13662 16.6636 5.59129C16.2421 6.01099 15.5803 6.04198 15.1234 5.68518L15.0137 5.5879L13.6051 4.17442L13.6051 15.3961C13.6051 16.0405 13.0828 16.5628 12.4384 16.5628C11.8401 16.5628 11.347 16.1124 11.2796 15.5322L11.2718 15.3961L11.2718 4.17433L9.86427 5.58776C9.44464 6.00926 8.78294 6.04308 8.32448 5.68824L8.21435 5.59143C7.79286 5.1718 7.75903 4.51011 8.11388 4.05164L8.21068 3.94152L11.5979 0.539181Z" fill="#447BFB"/>
</svg>
